<svg xmlns="http://www.w3.org/2000/svg" width="1000" height="980" viewBox="0 0 1000 980"><defs><filter id="chipshadow" width="140%" height="140%" x="-20%" y="-20%"><feGaussianBlur in="SourceAlpha" stdDeviation="2.5"/><feOffset dx="1.5" dy="2.5" result="off"/><feFlood flood-color="#000" flood-opacity=".22"/><feComposite in2="off" operator="in" result="shadow"/><feMerge><feMergeNode in="shadow"/><feMergeNode in="SourceGraphic"/></feMerge></filter></defs><style>text{font-family:&apos;DejaVu Sans&apos;,&apos;Helvetica&apos;,sans-serif}.tick{font-size:17px;fill:#555}.axt,.leg{font-size:19px;fill:#333}.leg{font-size:17px}.note{font-size:16px;fill:#777}</style><line x1="100" x2="960" y1="520" y2="520" stroke="#e3e6ea" stroke-width="1"/><text x="90" y="526" class="tick" text-anchor="end">0.2</text><line x1="100" x2="960" y1="445.6" y2="445.6" stroke="#e3e6ea" stroke-width="1"/><text x="90" y="451.6" class="tick" text-anchor="end">0.5</text><line x1="100" x2="960" y1="389.4" y2="389.4" stroke="#e3e6ea" stroke-width="1"/><text x="90" y="395.4" class="tick" text-anchor="end">1</text><line x1="100" x2="960" y1="333.1" y2="333.1" stroke="#e3e6ea" stroke-width="1"/><text x="90" y="339.1" class="tick" text-anchor="end">2</text><line x1="100" x2="960" y1="258.8" y2="258.8" stroke="#e3e6ea" stroke-width="1"/><text x="90" y="264.8" class="tick" text-anchor="end">5</text><line x1="100" x2="960" y1="202.5" y2="202.5" stroke="#e3e6ea" stroke-width="1"/><text x="90" y="208.5" class="tick" text-anchor="end">10</text><line x1="100" x2="960" y1="146.3" y2="146.3" stroke="#e3e6ea" stroke-width="1"/><text x="90" y="152.3" class="tick" text-anchor="end">20</text><line x1="100" x2="960" y1="520" y2="520" stroke="#b9bfc7" stroke-width="1.5"/><text x="26" y="305" class="axt" text-anchor="middle" transform="rotate(-90 26 305.0)">performance (Matom-step/s)</text><path fill="none" stroke="#7f8c9b" stroke-dasharray="8 6" stroke-width="2" d="M 100.0 494.6 L 222.9 438.3 L 345.7 382.1 L 468.6 325.8 L 591.4 269.6 L 714.3 213.3 L 837.1 157.0 L 960.0 100.8"/><text x="948" y="102.8" class="note" text-anchor="end">ideal scaling</text><path fill="none" stroke="#0b7d9d" stroke-linecap="round" stroke-linejoin="round" stroke-width="2.5" d="M 100.0 494.6 L 222.9 440.8 L 345.7 387.7 L 468.6 340.0 L 591.4 286.0 L 714.3 237.7 L 837.1 210.8 L 960.0 187.5"/><circle cx="100" cy="494.6" r="5.5" fill="#0b7d9d" stroke="#fff" stroke-width="2"/><circle cx="222.9" cy="440.8" r="5.5" fill="#0b7d9d" stroke="#fff" stroke-width="2"/><circle cx="345.7" cy="387.7" r="5.5" fill="#0b7d9d" stroke="#fff" stroke-width="2"/><circle cx="468.6" cy="340" r="5.5" fill="#0b7d9d" stroke="#fff" stroke-width="2"/><circle cx="591.4" cy="286" r="5.5" fill="#0b7d9d" stroke="#fff" stroke-width="2"/><circle cx="714.3" cy="237.7" r="5.5" fill="#0b7d9d" stroke="#fff" stroke-width="2"/><circle cx="837.1" cy="210.8" r="5.5" fill="#0b7d9d" stroke="#fff" stroke-width="2"/><circle cx="960" cy="187.5" r="5.5" fill="#0b7d9d" stroke="#fff" stroke-width="2"/><path fill="none" stroke="#b02525" stroke-linecap="round" stroke-linejoin="round" stroke-width="2.5" d="M 100.0 495.4 L 222.9 441.0 L 345.7 390.2 L 468.6 340.2 L 591.4 288.6 L 714.3 244.4 L 837.1 226.1 L 960.0 219.9"/><circle cx="100" cy="495.4" r="5.5" fill="#b02525" stroke="#fff" stroke-width="2"/><circle cx="222.9" cy="441" r="5.5" fill="#b02525" stroke="#fff" stroke-width="2"/><circle cx="345.7" cy="390.2" r="5.5" fill="#b02525" stroke="#fff" stroke-width="2"/><circle cx="468.6" cy="340.2" r="5.5" fill="#b02525" stroke="#fff" stroke-width="2"/><circle cx="591.4" cy="288.6" r="5.5" fill="#b02525" stroke="#fff" stroke-width="2"/><circle cx="714.3" cy="244.4" r="5.5" fill="#b02525" stroke="#fff" stroke-width="2"/><circle cx="837.1" cy="226.1" r="5.5" fill="#b02525" stroke="#fff" stroke-width="2"/><circle cx="960" cy="219.9" r="5.5" fill="#b02525" stroke="#fff" stroke-width="2"/><text x="100" y="546" class="tick" text-anchor="middle">1</text><text x="222.9" y="546" class="tick" text-anchor="middle">2</text><text x="345.7" y="546" class="tick" text-anchor="middle">4</text><text x="468.6" y="546" class="tick" text-anchor="middle">8</text><text x="591.4" y="546" class="tick" text-anchor="middle">16</text><text x="714.3" y="546" class="tick" text-anchor="middle">32</text><text x="837.1" y="546" class="tick" text-anchor="middle">64</text><text x="960" y="546" class="tick" text-anchor="middle">128</text><line x1="100" x2="960" y1="890" y2="890" stroke="#e3e6ea" stroke-width="1"/><text x="90" y="896" class="tick" text-anchor="end">0</text><line x1="100" x2="960" y1="817.5" y2="817.5" stroke="#e3e6ea" stroke-width="1"/><text x="90" y="823.5" class="tick" text-anchor="end">25</text><line x1="100" x2="960" y1="745" y2="745" stroke="#e3e6ea" stroke-width="1"/><text x="90" y="751" class="tick" text-anchor="end">50</text><line x1="100" x2="960" y1="672.5" y2="672.5" stroke="#e3e6ea" stroke-width="1"/><text x="90" y="678.5" class="tick" text-anchor="end">75</text><line x1="100" x2="960" y1="600" y2="600" stroke="#e3e6ea" stroke-width="1"/><text x="90" y="606" class="tick" text-anchor="end">100</text><line x1="100" x2="960" y1="890" y2="890" stroke="#b9bfc7" stroke-width="1.5"/><text x="26" y="745" class="axt" text-anchor="middle" transform="rotate(-90 26 745.0)">parallel efficiency (%)</text><path fill="none" stroke="#0b7d9d" stroke-linecap="round" stroke-linejoin="round" stroke-width="2.5" d="M 100.0 600.0 L 222.9 608.7 L 345.7 620.3 L 468.6 646.4 L 591.4 652.2 L 714.3 675.4 L 837.1 739.2 L 960.0 791.4"/><circle cx="100" cy="600" r="5.5" fill="#0b7d9d" stroke="#fff" stroke-width="2"/><circle cx="222.9" cy="608.7" r="5.5" fill="#0b7d9d" stroke="#fff" stroke-width="2"/><circle cx="345.7" cy="620.3" r="5.5" fill="#0b7d9d" stroke="#fff" stroke-width="2"/><circle cx="468.6" cy="646.4" r="5.5" fill="#0b7d9d" stroke="#fff" stroke-width="2"/><circle cx="591.4" cy="652.2" r="5.5" fill="#0b7d9d" stroke="#fff" stroke-width="2"/><circle cx="714.3" cy="675.4" r="5.5" fill="#0b7d9d" stroke="#fff" stroke-width="2"/><circle cx="837.1" cy="739.2" r="5.5" fill="#0b7d9d" stroke="#fff" stroke-width="2"/><circle cx="960" cy="791.4" r="5.5" fill="#0b7d9d" stroke="#fff" stroke-width="2"/><path fill="none" stroke="#b02525" stroke-linecap="round" stroke-linejoin="round" stroke-width="2.5" d="M 100.0 600.0 L 222.9 605.8 L 345.7 626.1 L 468.6 643.5 L 591.4 658.0 L 714.3 689.9 L 837.1 768.2 L 960.0 823.3"/><circle cx="100" cy="600" r="5.5" fill="#b02525" stroke="#fff" stroke-width="2"/><circle cx="222.9" cy="605.8" r="5.5" fill="#b02525" stroke="#fff" stroke-width="2"/><circle cx="345.7" cy="626.1" r="5.5" fill="#b02525" stroke="#fff" stroke-width="2"/><circle cx="468.6" cy="643.5" r="5.5" fill="#b02525" stroke="#fff" stroke-width="2"/><circle cx="591.4" cy="658" r="5.5" fill="#b02525" stroke="#fff" stroke-width="2"/><circle cx="714.3" cy="689.9" r="5.5" fill="#b02525" stroke="#fff" stroke-width="2"/><circle cx="837.1" cy="768.2" r="5.5" fill="#b02525" stroke="#fff" stroke-width="2"/><circle cx="960" cy="823.3" r="5.5" fill="#b02525" stroke="#fff" stroke-width="2"/><text x="100" y="918" class="tick" text-anchor="middle">1</text><text x="222.9" y="918" class="tick" text-anchor="middle">2</text><text x="345.7" y="918" class="tick" text-anchor="middle">4</text><text x="468.6" y="918" class="tick" text-anchor="middle">8</text><text x="591.4" y="918" class="tick" text-anchor="middle">16</text><text x="714.3" y="918" class="tick" text-anchor="middle">32</text><text x="837.1" y="918" class="tick" text-anchor="middle">64</text><text x="960" y="918" class="tick" text-anchor="middle">128</text><text x="530" y="962" class="axt" text-anchor="middle">number of MPI tasks</text><g filter="url(#chipshadow)"><rect width="330" height="34" x="100" y="14" fill="#fff" fill-opacity=".96" stroke="#ccc" rx="9"/></g><circle cx="123" cy="31" r="7" fill="#0b7d9d"/><text x="140" y="37" class="leg">256000 atoms</text><circle cx="290" cy="31" r="7" fill="#b02525"/><text x="307" y="37" class="leg">32000 atoms</text></svg>